<svg id="visual" viewBox="0 0 1920 1080" width="1920" height="1080" xmlns="http://www.w3.org/2000/svg" xmlns:xlink="http://www.w3.org/1999/xlink" version="1.1"><rect x="0" y="0" width="1920" height="1080" fill="#001220"></rect><path d="M0 399L45.7 424.3C91.3 449.7 182.7 500.3 274.2 526C365.7 551.7 457.3 552.3 548.8 530.7C640.3 509 731.7 465 823 438C914.3 411 1005.7 401 1097 400.2C1188.3 399.3 1279.7 407.7 1371.2 428C1462.7 448.3 1554.3 480.7 1645.8 483C1737.3 485.3 1828.7 457.7 1874.3 443.8L1920 430L1920 1081L1874.3 1081C1828.7 1081 1737.3 1081 1645.8 1081C1554.3 1081 1462.7 1081 1371.2 1081C1279.7 1081 1188.3 1081 1097 1081C1005.7 1081 914.3 1081 823 1081C731.7 1081 640.3 1081 548.8 1081C457.3 1081 365.7 1081 274.2 1081C182.7 1081 91.3 1081 45.7 1081L0 1081Z" fill="#fa7268"></path><path d="M0 449L45.7 478.7C91.3 508.3 182.7 567.7 274.2 598.7C365.7 629.7 457.3 632.3 548.8 610.7C640.3 589 731.7 543 823 520.5C914.3 498 1005.7 499 1097 514.8C1188.3 530.7 1279.7 561.3 1371.2 560.3C1462.7 559.3 1554.3 526.7 1645.8 529.7C1737.3 532.7 1828.7 571.3 1874.3 590.7L1920 610L1920 1081L1874.3 1081C1828.7 1081 1737.3 1081 1645.8 1081C1554.3 1081 1462.7 1081 1371.2 1081C1279.7 1081 1188.3 1081 1097 1081C1005.7 1081 914.3 1081 823 1081C731.7 1081 640.3 1081 548.8 1081C457.3 1081 365.7 1081 274.2 1081C182.7 1081 91.3 1081 45.7 1081L0 1081Z" fill="#f66a67"></path><path d="M0 567L45.7 585.3C91.3 603.7 182.7 640.3 274.2 639.2C365.7 638 457.3 599 548.8 597.8C640.3 596.7 731.7 633.3 823 645.3C914.3 657.3 1005.7 644.7 1097 628.3C1188.3 612 1279.7 592 1371.2 565.8C1462.7 539.7 1554.3 507.3 1645.8 494C1737.3 480.7 1828.7 486.3 1874.3 489.2L1920 492L1920 1081L1874.3 1081C1828.7 1081 1737.3 1081 1645.8 1081C1554.3 1081 1462.7 1081 1371.2 1081C1279.7 1081 1188.3 1081 1097 1081C1005.7 1081 914.3 1081 823 1081C731.7 1081 640.3 1081 548.8 1081C457.3 1081 365.7 1081 274.2 1081C182.7 1081 91.3 1081 45.7 1081L0 1081Z" fill="#f16367"></path><path d="M0 614L45.7 627.5C91.3 641 182.7 668 274.2 673.8C365.7 679.7 457.3 664.3 548.8 668C640.3 671.7 731.7 694.3 823 703.8C914.3 713.3 1005.7 709.7 1097 694.2C1188.3 678.7 1279.7 651.3 1371.2 648.5C1462.7 645.7 1554.3 667.3 1645.8 653.2C1737.3 639 1828.7 589 1874.3 564L1920 539L1920 1081L1874.3 1081C1828.7 1081 1737.3 1081 1645.8 1081C1554.3 1081 1462.7 1081 1371.2 1081C1279.7 1081 1188.3 1081 1097 1081C1005.7 1081 914.3 1081 823 1081C731.7 1081 640.3 1081 548.8 1081C457.3 1081 365.7 1081 274.2 1081C182.7 1081 91.3 1081 45.7 1081L0 1081Z" fill="#ed5b67"></path><path d="M0 687L45.7 679C91.3 671 182.7 655 274.2 646.7C365.7 638.3 457.3 637.7 548.8 640.7C640.3 643.7 731.7 650.3 823 645.7C914.3 641 1005.7 625 1097 638.5C1188.3 652 1279.7 695 1371.2 709.8C1462.7 724.7 1554.3 711.3 1645.8 695.8C1737.3 680.3 1828.7 662.7 1874.3 653.8L1920 645L1920 1081L1874.3 1081C1828.7 1081 1737.3 1081 1645.8 1081C1554.3 1081 1462.7 1081 1371.2 1081C1279.7 1081 1188.3 1081 1097 1081C1005.7 1081 914.3 1081 823 1081C731.7 1081 640.3 1081 548.8 1081C457.3 1081 365.7 1081 274.2 1081C182.7 1081 91.3 1081 45.7 1081L0 1081Z" fill="#e85467"></path><path d="M0 706L45.7 718.2C91.3 730.3 182.7 754.7 274.2 749C365.7 743.3 457.3 707.7 548.8 708.3C640.3 709 731.7 746 823 750.3C914.3 754.7 1005.7 726.3 1097 713.3C1188.3 700.3 1279.7 702.7 1371.2 698.2C1462.7 693.7 1554.3 682.3 1645.8 700.3C1737.3 718.3 1828.7 765.7 1874.3 789.3L1920 813L1920 1081L1874.3 1081C1828.7 1081 1737.3 1081 1645.8 1081C1554.3 1081 1462.7 1081 1371.2 1081C1279.7 1081 1188.3 1081 1097 1081C1005.7 1081 914.3 1081 823 1081C731.7 1081 640.3 1081 548.8 1081C457.3 1081 365.7 1081 274.2 1081C182.7 1081 91.3 1081 45.7 1081L0 1081Z" fill="#e34c67"></path><path d="M0 808L45.7 797.8C91.3 787.7 182.7 767.3 274.2 774.5C365.7 781.7 457.3 816.3 548.8 823.8C640.3 831.3 731.7 811.7 823 809C914.3 806.3 1005.7 820.7 1097 826.3C1188.3 832 1279.7 829 1371.2 824.8C1462.7 820.7 1554.3 815.3 1645.8 819.7C1737.3 824 1828.7 838 1874.3 845L1920 852L1920 1081L1874.3 1081C1828.7 1081 1737.3 1081 1645.8 1081C1554.3 1081 1462.7 1081 1371.2 1081C1279.7 1081 1188.3 1081 1097 1081C1005.7 1081 914.3 1081 823 1081C731.7 1081 640.3 1081 548.8 1081C457.3 1081 365.7 1081 274.2 1081C182.7 1081 91.3 1081 45.7 1081L0 1081Z" fill="#de4467"></path><path d="M0 864L45.7 856.2C91.3 848.3 182.7 832.7 274.2 833.7C365.7 834.7 457.3 852.3 548.8 847.3C640.3 842.3 731.7 814.7 823 816C914.3 817.3 1005.7 847.7 1097 867.8C1188.3 888 1279.7 898 1371.2 895.3C1462.7 892.7 1554.3 877.3 1645.8 866.2C1737.3 855 1828.7 848 1874.3 844.5L1920 841L1920 1081L1874.3 1081C1828.7 1081 1737.3 1081 1645.8 1081C1554.3 1081 1462.7 1081 1371.2 1081C1279.7 1081 1188.3 1081 1097 1081C1005.7 1081 914.3 1081 823 1081C731.7 1081 640.3 1081 548.8 1081C457.3 1081 365.7 1081 274.2 1081C182.7 1081 91.3 1081 45.7 1081L0 1081Z" fill="#d83c67"></path><path d="M0 907L45.7 900.8C91.3 894.7 182.7 882.3 274.2 887.7C365.7 893 457.3 916 548.8 923.8C640.3 931.7 731.7 924.3 823 910C914.3 895.7 1005.7 874.3 1097 870C1188.3 865.7 1279.7 878.3 1371.2 890.2C1462.7 902 1554.3 913 1645.8 918.3C1737.3 923.7 1828.7 923.3 1874.3 923.2L1920 923L1920 1081L1874.3 1081C1828.7 1081 1737.3 1081 1645.8 1081C1554.3 1081 1462.7 1081 1371.2 1081C1279.7 1081 1188.3 1081 1097 1081C1005.7 1081 914.3 1081 823 1081C731.7 1081 640.3 1081 548.8 1081C457.3 1081 365.7 1081 274.2 1081C182.7 1081 91.3 1081 45.7 1081L0 1081Z" fill="#d23467"></path><path d="M0 954L45.7 959.8C91.3 965.7 182.7 977.3 274.2 979.8C365.7 982.3 457.3 975.7 548.8 972.2C640.3 968.7 731.7 968.3 823 969.5C914.3 970.7 1005.7 973.3 1097 968.2C1188.3 963 1279.7 950 1371.2 941.5C1462.7 933 1554.3 929 1645.8 935.7C1737.3 942.3 1828.7 959.7 1874.3 968.3L1920 977L1920 1081L1874.3 1081C1828.7 1081 1737.3 1081 1645.8 1081C1554.3 1081 1462.7 1081 1371.2 1081C1279.7 1081 1188.3 1081 1097 1081C1005.7 1081 914.3 1081 823 1081C731.7 1081 640.3 1081 548.8 1081C457.3 1081 365.7 1081 274.2 1081C182.7 1081 91.3 1081 45.7 1081L0 1081Z" fill="#cc2c68"></path><path d="M0 977L45.7 977.2C91.3 977.3 182.7 977.7 274.2 982.8C365.7 988 457.3 998 548.8 1008.2C640.3 1018.3 731.7 1028.7 823 1030.7C914.3 1032.7 1005.7 1026.3 1097 1024.2C1188.3 1022 1279.7 1024 1371.2 1018C1462.7 1012 1554.3 998 1645.8 997.2C1737.3 996.3 1828.7 1008.7 1874.3 1014.8L1920 1021L1920 1081L1874.3 1081C1828.7 1081 1737.3 1081 1645.8 1081C1554.3 1081 1462.7 1081 1371.2 1081C1279.7 1081 1188.3 1081 1097 1081C1005.7 1081 914.3 1081 823 1081C731.7 1081 640.3 1081 548.8 1081C457.3 1081 365.7 1081 274.2 1081C182.7 1081 91.3 1081 45.7 1081L0 1081Z" fill="#c62368"></path></svg>